<svg xmlns="http://www.w3.org/2000/svg" viewBox="0 0 280 280" fill="none" shape-rendering="auto"><metadata xmlns:rdf="http://www.w3.org/1999/02/22-rdf-syntax-ns#" xmlns:xsi="http://www.w3.org/2001/XMLSchema-instance" xmlns:dc="http://purl.org/dc/elements/1.1/" xmlns:dcterms="http://purl.org/dc/terms/"><rdf:RDF><rdf:Description><dc:title>Avataaars</dc:title><dc:creator>Pablo Stanley</dc:creator><dc:source xsi:type="dcterms:URI">https://avataaars.com/</dc:source><dcterms:license xsi:type="dcterms:URI">https://avataaars.com/</dcterms:license><dc:rights>Remix of „Avataaars” (https://avataaars.com/) by „Pablo Stanley”, licensed under „Free for personal and commercial use” (https://avataaars.com/)</dc:rights></rdf:Description></rdf:RDF></metadata><mask id="viewboxMask"><rect width="280" height="280" rx="0" ry="0" x="0" y="0" fill="#fff" /></mask><g mask="url(#viewboxMask)"><g transform="translate(8)"><path d="M132 36a56 56 0 0 0-56 56v6.17A12 12 0 0 0 66 110v14a12 12 0 0 0 10.3 11.88 56.04 56.04 0 0 0 31.7 44.73v18.4h-4a72 72 0 0 0-72 72v9h200v-9a72 72 0 0 0-72-72h-4v-18.39a56.04 56.04 0 0 0 31.7-44.73A12 12 0 0 0 198 124v-14a12 12 0 0 0-10-11.83V92a56 56 0 0 0-56-56Z" fill="#ffdbb4"/><path d="M108 180.61v8a55.79 55.79 0 0 0 24 5.39c8.59 0 16.73-1.93 24-5.39v-8a55.79 55.79 0 0 1-24 5.39 55.79 55.79 0 0 1-24-5.39Z" fill="#000" fill-opacity=".1"/><g transform="translate(0 170)"><path d="M196 38.63V110H68V38.63a71.52 71.52 0 0 1 26-8.94v44.3h76V29.69a71.52 71.52 0 0 1 26 8.94Z" fill="#262e33"/><path d="M86 83a5 5 0 1 1-10 0 5 5 0 0 1 10 0ZM188 83a5 5 0 1 1-10 0 5 5 0 0 1 10 0Z" fill="#F4F4F4"/></g><g transform="translate(78 134)"><path fill-rule="evenodd" clip-rule="evenodd" d="M29 15.6C30.41 25.24 41.06 33 54 33c12.97 0 23.65-7.82 25-18.26.1-.4-.22-1.74-2.17-1.74H31.17c-1.79 0-2.3 1.24-2.17 2.6Z" fill="#000" fill-opacity=".7"/><path d="M70 13H39a5 5 0 0 0 5 5h21a5 5 0 0 0 5-5Z" fill="#fff"/><path d="M43 23.5a1.88 1.88 0 0 0 0 .13v8.87a11.5 11.5 0 1 0 23 0v-8.87a1.62 1.62 0 0 0 0-.13c0-1.93-2.91-3.5-6.5-3.5-2.01 0-3.8.5-5 1.26a9.45 9.45 0 0 0-5-1.26c-3.59 0-6.5 1.57-6.5 3.5Z" fill="#FF4F6D"/></g><g transform="translate(104 122)"><path fill-rule="evenodd" clip-rule="evenodd" d="M16 8c0 4.42 5.37 8 12 8s12-3.58 12-8" fill="#000" fill-opacity=".16"/></g><g transform="translate(76 90)"><path d="M44 22a14 14 0 1 1-28 0 14 14 0 0 1 28 0ZM96 22a14 14 0 1 1-28 0 14 14 0 0 1 28 0Z" fill="#fff"/><path d="M36 22a6 6 0 1 1-12 0 6 6 0 0 1 12 0ZM88 22a6 6 0 1 1-12 0 6 6 0 0 1 12 0Z" fill="#000" fill-opacity=".7"/></g><g transform="translate(76 82)"><path d="M15.61 15.18c4.24-5.76 6.88-5.48 13.31-.62l.67.5C34.41 18.73 36.7 20 40 20a2 2 0 1 0 0-4c-2.07 0-3.9-1.02-7.99-4.12l-.68-.52C27.57 8.53 25.37 7.3 22.63 7c-3.68-.4-7.05 1.48-10.24 5.83a2 2 0 1 0 3.22 2.36ZM96.39 15.18c-4.24-5.76-6.88-5.48-13.31-.62l-.67.5C77.58 18.73 75.29 20 72 20a2 2 0 1 1 0-4c2.07 0 3.9-1.02 7.99-4.12l.68-.52c3.76-2.83 5.96-4.07 8.7-4.37 3.68-.4 7.05 1.48 10.24 5.83a2 2 0 1 1-3.22 2.36Z" fill="#000" fill-opacity=".6"/></g><g transform="translate(-1)"><circle cx="133" cy="20" r="20" fill="#F4F4F4"/><path fill-rule="evenodd" clip-rule="evenodd" d="M67 78a66 66 0 1 1 132 0v5H67v-5Z" fill="#ffafb9"/><path fill-rule="evenodd" clip-rule="evenodd" d="M64 69.77a7.05 7.05 0 0 1 3.05-5.96c7.8-5.18 30.42-17.8 66.02-17.8 35.6 0 58.14 12.62 65.9 17.81a7.04 7.04 0 0 1 3.03 5.95v30.2c0 3.3-3.9 5.38-6.78 3.75C184.84 97.83 163.1 88 133.8 88a133.57 133.57 0 0 0-63.17 15.98c-2.85 1.56-6.63-.5-6.63-3.75V69.77Z" fill="#000" fill-opacity=".1"/><path fill-rule="evenodd" clip-rule="evenodd" d="M64 67.77a7.05 7.05 0 0 1 3.05-5.96c7.8-5.18 30.42-17.8 66.02-17.8 35.6 0 58.14 12.62 65.9 17.81a7.04 7.04 0 0 1 3.03 5.95v30.2c0 3.3-3.9 5.38-6.78 3.75C184.84 95.83 163.1 86 133.8 86a133.57 133.57 0 0 0-63.17 15.98c-2.85 1.56-6.63-.5-6.63-3.75V67.77Z" fill="#F4F4F4"/></g><g transform="translate(49 72)"></g><g transform="translate(62 42)"><g fill-rule="evenodd" clip-rule="evenodd"><path d="M111.71 53.49c4.67.16 8 .88 10.55 4.52 3.01.15 6.25.37 8.98 1.63 3.39 1.56 3.9 5.1-.36 5.59-1.86.2-3.72-.12-5.55-.45l-.19-.03-.33-.06c1.1 9.46-6.21 20.87-14.23 24.35C99.6 93.8 87.34 88.53 81.53 79c-2.62-4.3-4.14-10.51-4.46-15.86-.42-.2-.83-.44-1.23-.67-.38-.22-.76-.44-1.12-.61-2-.98-5.34-1.1-7.5 0-.35.17-.7.37-1.05.58-.42.25-.86.5-1.3.72C64.53 68.5 63.01 74.7 60.4 79c-5.8 9.53-18.07 14.8-29.05 10.04-8.02-3.48-15.33-14.89-14.23-24.35l-.33.06-.2.03c-1.83.33-3.7.66-5.55.45-4.27-.5-3.74-4.03-.36-5.6 2.72-1.25 5.96-1.47 8.97-1.62 2.55-3.63 5.88-4.36 10.55-4.52l23.29-.46c5.19-.14 9.72 0 11.03 4.6a18.7 18.7 0 0 1 6.35-1.25c1.86 0 4.35.45 6.5 1.28 1.3-4.64 5.83-4.77 11.03-4.63l23.3.46Zm-24.03 6.78c-2.37.03-3.5.42-3.9 2.9-.4 2.5 0 5.31.46 7.78.73 3.77 1.92 7.46 4.71 10.22a16.24 16.24 0 0 0 8.32 4.34c.11.03.54.1.96.16.63.1 1.23.18.71.13 3.73.4 7.72.3 10.82-2.05 3.53-2.7 5.95-6.95 7.01-11.2.63-2.48 1.93-8.42-.46-10.4-2.73-2.28-28.63-1.88-28.63-1.88Zm-33.43 0c2.37.03 3.5.42 3.9 2.9.4 2.5 0 5.32-.46 7.78-.73 3.77-1.92 7.46-4.71 10.22a16.23 16.23 0 0 1-9.28 4.5c-.64.1-1.26.19-.68.13-3.73.4-7.74.32-10.85-2.05-3.53-2.69-5.95-6.95-7.01-11.2-.63-2.48-1.93-8.42.46-10.4 2.73-2.28 28.63-1.87 28.63-1.87Zm-10.93 25.5Z" fill="#000" fill-opacity=".1"/><path d="M55.01 57.28c2.51.02 3.7.45 4.13 3.11.43 2.7 0 5.74-.5 8.4-.75 4.06-2.02 8.04-4.98 11a17.16 17.16 0 0 1-8.8 4.69c-.33.07-3.15.47-1.42.27-4.04.47-8.43.45-11.8-2.17-3.74-2.9-6.3-7.5-7.43-12.07-.66-2.66-2.04-9.06.49-11.2C27.6 56.85 55 57.28 55 57.28Z" fill="#000" fill-opacity=".7"/><path d="M55.01 57.28c2.51.02 3.7.45 4.13 3.11.43 2.7 0 5.74-.5 8.4-.75 4.06-2.02 8.04-4.98 11a17.16 17.16 0 0 1-8.8 4.69c-.33.07-3.15.47-1.42.27-4.04.47-8.43.45-11.8-2.17-3.74-2.9-6.3-7.5-7.43-12.07-.66-2.66-2.04-9.06.49-11.2C27.6 56.85 55 57.28 55 57.28Z" fill="url(#accessoriesSunglasses-a)" style="mix-blend-mode:screen"/><path d="M86.92 57.27c-2.51.03-3.7.45-4.13 3.12-.43 2.7 0 5.73.5 8.4.75 4.06 2.02 8.03 4.98 11a17.17 17.17 0 0 0 8.8 4.69c.33.07 3.15.47 1.42.26 4.04.47 8.43.45 11.8-2.16 3.74-2.9 6.3-7.5 7.43-12.07.66-2.67 2.04-9.07-.49-11.2-2.9-2.46-30.31-2.03-30.31-2.03Z" fill="#000" fill-opacity=".7"/><path d="M86.92 57.27c-2.51.03-3.7.45-4.13 3.12-.43 2.7 0 5.73.5 8.4.75 4.06 2.02 8.03 4.98 11a17.17 17.17 0 0 0 8.8 4.69c.33.07 3.15.47 1.42.26 4.04.47 8.43.45 11.8-2.16 3.74-2.9 6.3-7.5 7.43-12.07.66-2.67 2.04-9.07-.49-11.2-2.9-2.46-30.31-2.03-30.31-2.03Z" fill="url(#accessoriesSunglasses-b)" style="mix-blend-mode:screen"/><path d="M111.71 51.49c4.67.16 8 .88 10.55 4.52 3.01.15 6.25.37 8.98 1.63 3.39 1.56 3.9 5.1-.36 5.59-1.86.2-3.72-.12-5.55-.45l-.19-.03-.33-.06c1.1 9.46-6.21 20.87-14.23 24.35C99.6 91.8 87.34 86.53 81.53 77c-2.62-4.3-4.14-10.51-4.46-15.86-.42-.2-.83-.44-1.23-.67-.38-.22-.76-.44-1.12-.61-2-.98-5.34-1.1-7.5 0-.35.17-.7.37-1.05.58-.42.25-.86.5-1.3.72C64.53 66.5 63.01 72.7 60.4 77c-5.8 9.53-18.07 14.8-29.05 10.04-8.02-3.48-15.33-14.89-14.23-24.35-.11 0-.22.03-.33.05l-.2.03c-1.83.33-3.7.66-5.55.45-4.27-.5-3.74-4.03-.36-5.6 2.72-1.25 5.96-1.47 8.97-1.62 2.55-3.63 5.88-4.36 10.55-4.52l23.29-.46c5.19-.14 9.72 0 11.03 4.6a18.7 18.7 0 0 1 6.35-1.25c1.86 0 4.35.45 6.5 1.28 1.3-4.64 5.83-4.77 11.03-4.63l23.3.46Zm-24.03 6.78c-2.37.03-3.5.42-3.9 2.9-.4 2.5 0 5.31.46 7.78.73 3.77 1.92 7.46 4.71 10.22a16.24 16.24 0 0 0 8.32 4.34c.11.03.54.1.96.16.63.1 1.23.18.71.13 3.73.4 7.72.3 10.82-2.05 3.53-2.7 5.95-6.95 7.01-11.2.63-2.48 1.93-8.42-.46-10.4-2.73-2.28-28.63-1.88-28.63-1.88Zm-33.43 0c2.37.03 3.5.42 3.9 2.9.4 2.5 0 5.32-.46 7.78-.73 3.77-1.92 7.46-4.71 10.22a16.23 16.23 0 0 1-9.28 4.5c-.64.1-1.26.19-.68.13-3.73.4-7.74.32-10.85-2.05-3.53-2.69-5.95-6.95-7.01-11.2-.63-2.48-1.93-8.42.46-10.4 2.73-2.28 28.63-1.87 28.63-1.87Zm-10.93 25.5Z" fill="#3c4f5c"/></g><defs><linearGradient id="accessoriesSunglasses-a" x1="28.56" y1="57.25" x2="28.56" y2="76.8" gradientUnits="userSpaceOnUse"><stop stop-color="#fff" stop-opacity=".5"/><stop offset="1" stop-opacity=".5"/></linearGradient><linearGradient id="accessoriesSunglasses-b" x1="82.61" y1="57.25" x2="82.61" y2="84.98" gradientUnits="userSpaceOnUse"><stop stop-color="#fff" stop-opacity=".5"/><stop offset=".71" stop-opacity=".5"/></linearGradient></defs></g></g></g></svg>